<svg xmlns="http://www.w3.org/2000/svg" width="82" height="60" fill="none" preserveAspectRatio="xMinYMid"><path fill="#fff" d="M61.94 13.668v24.46a8 8 0 01-8 8H19.152c-.1-1.02-.15-2.055-.15-3.101 0-17.397 14.103-31.5 31.5-31.5 4.034 0 7.892.758 11.438 2.14z"/><path fill="#292929" fill-rule="evenodd" d="M42.463 25.216a1.02 1.02 0 011.471 0l4.384 4.513c.63.648.63 1.698 0 2.347l-4.383 4.512a1.02 1.02 0 01-1.472 0 1.094 1.094 0 010-1.514l3.004-3.093H38.12c-.578 0-1.047-.483-1.047-1.079s.469-1.079 1.047-1.079h7.346l-3.004-3.092a1.094 1.094 0 010-1.515z" clip-rule="evenodd"/></svg>