<svg xmlns="http://www.w3.org/2000/svg" width="1280" height="84" fill="none"><g clip-path="url(#clip0_991_80048)"><path fill="#FFC244" d="M0 0h1281v84H0z"/><g opacity=".8"><circle cx="323.802" cy="9.053" r="2.526" fill="#fff"/><circle cx="260.641" cy="76.003" r="2.526" fill="#fff"/><circle cx="42.106" cy="11.579" r="2.526" fill="#fff"/><circle cx="34.527" cy="76.003" r="2.526" fill="#fff"/><path stroke="#fff" stroke-linecap="round" stroke-width=".713" d="M468.503 58.32v1.557M468.503 65.588v1.557M472.847 62.659h-1.558M465.576 62.659h-1.558M471.575 59.591l-1.101 1.102M466.434 64.728l-1.102 1.101M471.574 65.73l-1.102-1.101M466.433 60.593l-1.102-1.101M289.128 5.265v1.557M289.128 12.533v1.557M293.471 9.604h-1.558M286.2 9.604h-1.558M292.2 6.537l-1.102 1.1M287.058 11.673l-1.102 1.102M292.199 12.675l-1.102-1.101M287.057 7.538l-1.102-1.1M27.644 19.157v1.557M27.644 26.425v1.558M31.988 23.496H30.43M24.717 23.496h-1.558M30.716 20.429l-1.101 1.101M25.575 25.566l-1.102 1.1M30.715 26.567l-1.102-1.101M25.574 21.43l-1.102-1.1"/><path fill="#fff" fill-rule="evenodd" d="M312.001 10.51l-5.503 5.484-7.767-.18 5.485 5.503-.181 7.768 5.503-5.485 7.768.18-5.485-5.503.18-7.768zM238.215 60.176l2.238 5.142-2.166 5.172 5.142-2.237 5.173 2.165-2.238-5.142 2.166-5.172-5.142 2.237-5.173-2.165zM448.928 68.564l2.238 5.142L449 78.88l5.142-2.238 5.173 2.166-2.238-5.142 2.166-5.173-5.142 2.238-5.173-2.166zM100.282 9.194l2.238 5.141-2.165 5.173 5.141-2.238 5.173 2.166-2.238-5.142 2.166-5.173-5.142 2.238-5.173-2.165zM13.121 63.511l2.238 5.142-2.166 5.173 5.142-2.238 5.173 2.166-2.238-5.142 2.166-5.173-5.142 2.238-5.173-2.166z" clip-rule="evenodd"/></g><g opacity=".8"><circle cx="803.802" cy="9.053" r="2.526" fill="#fff"/><circle cx="740.641" cy="76.003" r="2.526" fill="#fff"/><circle cx="522.107" cy="11.579" r="2.526" fill="#fff"/><circle cx="514.527" cy="76.003" r="2.526" fill="#fff"/><path stroke="#fff" stroke-linecap="round" stroke-width=".713" d="M948.503 58.32v1.557M948.503 65.588v1.557M952.847 62.659h-1.558M945.576 62.659h-1.558M951.575 59.591l-1.101 1.102M946.434 64.728l-1.102 1.101M951.574 65.73l-1.102-1.101M946.433 60.593l-1.102-1.101M769.128 5.265v1.557M769.128 12.533v1.557M773.471 9.604h-1.558M766.2 9.604h-1.558M772.2 6.537l-1.102 1.1M767.058 11.673l-1.102 1.102M772.199 12.675l-1.102-1.101M767.057 7.538l-1.102-1.1M507.644 19.157v1.557M507.644 26.425v1.558M511.988 23.496h-1.558M504.717 23.496h-1.558M510.716 20.429l-1.101 1.101M505.575 25.566l-1.102 1.1M510.715 26.567l-1.101-1.101M505.574 21.43l-1.102-1.1"/><path fill="#fff" fill-rule="evenodd" d="M792.001 10.51l-5.503 5.484-7.767-.18 5.485 5.503-.181 7.768 5.503-5.485 7.768.18-5.485-5.503.18-7.768zM718.215 60.176l2.238 5.142-2.166 5.172 5.142-2.237 5.173 2.165-2.238-5.142 2.166-5.172-5.142 2.237-5.173-2.165zM928.928 68.564l2.238 5.142L929 78.88l5.142-2.238 5.173 2.166-2.238-5.142 2.166-5.173-5.142 2.238-5.173-2.166zM580.282 9.194l2.238 5.141-2.165 5.173 5.141-2.238 5.173 2.166-2.238-5.142 2.166-5.173-5.142 2.238-5.173-2.165zM493.121 63.511l2.238 5.142-2.166 5.173 5.142-2.238 5.173 2.166-2.238-5.142 2.166-5.173-5.142 2.238-5.173-2.166z" clip-rule="evenodd"/></g><g opacity=".8"><circle cx="1220.64" cy="76.003" r="2.526" fill="#fff"/><circle cx="1002.11" cy="11.579" r="2.526" fill="#fff"/><circle cx="994.527" cy="76.003" r="2.526" fill="#fff"/><path stroke="#fff" stroke-linecap="round" stroke-width=".713" d="M1249.13 5.265v1.557M1249.13 12.533v1.557M1253.47 9.604h-1.56M1246.2 9.604h-1.56M1252.2 6.537l-1.1 1.1M1247.06 11.673l-1.1 1.102M1252.2 12.675l-1.1-1.101M1247.06 7.538l-1.1-1.1M987.644 19.157v1.557M987.644 26.425v1.558M991.988 23.496h-1.558M984.717 23.496h-1.558M990.716 20.429l-1.101 1.101M985.575 25.566l-1.102 1.1M990.715 26.567l-1.101-1.101M985.574 21.43l-1.102-1.1"/><path fill="#fff" fill-rule="evenodd" d="M1272 10.51l-5.5 5.484-7.77-.18 5.49 5.503-.18 7.768 5.5-5.485 7.77.18-5.49-5.503.18-7.768zM1198.22 60.176l2.23 5.142-2.16 5.172 5.14-2.237 5.17 2.165-2.24-5.142 2.17-5.172-5.14 2.237-5.17-2.165zM1060.28 9.194l2.24 5.141-2.17 5.173 5.15-2.238 5.17 2.166-2.24-5.142 2.17-5.173-5.14 2.238-5.18-2.165zM973.121 63.511l2.238 5.142-2.166 5.173 5.142-2.238 5.173 2.166-2.238-5.142 2.166-5.173-5.142 2.238-5.173-2.166z" clip-rule="evenodd"/></g></g><defs><clipPath id="clip0_991_80048"><path fill="#fff" d="M0 0h1281v84H0z"/></clipPath></defs></svg>